<?xml version="1.0" encoding="UTF-8" standalone="no"?>
<!-- Generator: Adobe Illustrator 19.2.0, SVG Export Plug-In . SVG Version: 6.00 Build 0)  -->

<svg
   xmlns:dc="http://purl.org/dc/elements/1.1/"
   xmlns:cc="http://creativecommons.org/ns#"
   xmlns:rdf="http://www.w3.org/1999/02/22-rdf-syntax-ns#"
   xmlns:svg="http://www.w3.org/2000/svg"
   xmlns="http://www.w3.org/2000/svg"
   xmlns:sodipodi="http://sodipodi.sourceforge.net/DTD/sodipodi-0.dtd"
   xmlns:inkscape="http://www.inkscape.org/namespaces/inkscape"
   version="1.1"
   id="Layer_1"
   x="0px"
   y="0px"
   viewBox="0 0 5184 1728"
   style="enable-background:new 0 0 5184 1728;"
   xml:space="preserve"
   sodipodi:docname="rosewell-logo-white.svg"
   inkscape:version="0.92.4 (f8dce91, 2019-08-02)"><metadata
   id="metadata4431"><rdf:RDF><cc:Work
       rdf:about=""><dc:format>image/svg+xml</dc:format><dc:type
         rdf:resource="http://purl.org/dc/dcmitype/StillImage" /><dc:title></dc:title></cc:Work></rdf:RDF></metadata><defs
   id="defs4429" /><sodipodi:namedview
   pagecolor="#ffffff"
   bordercolor="#666666"
   borderopacity="1"
   objecttolerance="10"
   gridtolerance="10"
   guidetolerance="10"
   inkscape:pageopacity="0"
   inkscape:pageshadow="2"
   inkscape:window-width="2518"
   inkscape:window-height="1379"
   id="namedview4427"
   showgrid="false"
   inkscape:zoom="0.45524691"
   inkscape:cx="2224.0678"
   inkscape:cy="864"
   inkscape:window-x="19"
   inkscape:window-y="19"
   inkscape:window-maximized="0"
   inkscape:current-layer="Layer_1" />
<style
   type="text/css"
   id="style4092">
	.st0{fill-rule:evenodd;clip-rule:evenodd;}
</style>

<g
   id="g4424"
   transform="translate(63.701695,166.94237)"
   style="fill:#ffffff"
   inkscape:export-xdpi="96"
   inkscape:export-ydpi="96">
	<g
   id="g4394"
   style="fill:#ffffff">
		<path
   class="st0"
   d="m 3046,608.4 c 3.6,-58.2 -3.7,-120.2 -23,-176.9 -17.4,-51.8 -44.3,-100.3 -78.9,-142.6 -34.6,-42.3 -76.8,-78.2 -124.1,-105.6 -94.1,-54.8 -208.7,-74.2 -316.3,-52.6 -53.6,10.6 -105.2,31 -151.6,59.8 -46.4,28.8 -87.5,66.1 -120.9,109.4 -69.1,89.3 -100.4,201.6 -92.6,308.4 H 3046 Z m -876,-151 c 12.6,-44.4 32.6,-87.7 59.1,-126.8 26.4,-39 59.3,-73.7 96.8,-102.3 119.1,-89 261.5,-112.8 402.3,-68.4 44.8,14.7 87.3,36.6 125.2,64.6 37.9,28.1 71.2,62.4 98.2,101 55.8,79.6 82.2,175 78.9,266.7 h -876.6 c -2,-45.1 3.4,-90.4 16.1,-134.8 z"
   id="path4370"
   inkscape:connector-curvature="0"
   style="clip-rule:evenodd;fill-rule:evenodd;fill:#ffffff" />
		<path
   class="st0"
   d="m 2746.8,183.8 c -45.7,-18 -96.3,-23.6 -146.8,-29.3 v 113.4 c 35.2,4 70.5,8 102.6,20.3 32.1,12.3 61,32.8 89.9,53.4 l 81.7,-79.1 c -40.9,-30.3 -81.7,-60.7 -127.4,-78.7 z"
   id="path4372"
   inkscape:connector-curvature="0"
   style="clip-rule:evenodd;fill-rule:evenodd;fill:#ffffff" />
		<path
   class="st0"
   d="m 2804.5,352.4 c 27.6,32.3 55.1,64.6 71.2,101.9 16.1,37.2 20.7,79.5 25.3,121.7 h 113.3 c -6.1,-56.9 -12.2,-113.8 -33.6,-164.2 -21.4,-50.4 -58.1,-94.3 -94.8,-138.2 z"
   id="path4374"
   inkscape:connector-curvature="0"
   style="clip-rule:evenodd;fill-rule:evenodd;fill:#ffffff" />
		<path
   class="st0"
   d="m 2480.2,288.7 c 32.4,-12.5 67.9,-16.7 103.5,-20.8 V 154.5 c -50.1,5.6 -100.2,11.2 -145.5,28.9 -45.4,17.7 -86,47.6 -126.6,77.4 l 78.1,82.3 c 29.1,-20.9 58.2,-41.8 90.5,-54.4 z"
   id="path4376"
   inkscape:connector-curvature="0"
   style="clip-rule:evenodd;fill-rule:evenodd;fill:#ffffff" />
		<path
   class="st0"
   d="m 2299.8,271.8 c -37.2,44.1 -74.5,88.1 -96.2,138.8 -21.7,50.7 -27.9,108 -34.1,165.4 h 113.3 c 4.5,-41.8 9.1,-83.6 24.9,-120.6 15.8,-37 42.9,-69.2 70,-101.4 z"
   id="path4378"
   inkscape:connector-curvature="0"
   style="clip-rule:evenodd;fill-rule:evenodd;fill:#ffffff" />
		<path
   class="st0"
   d="m 2389,365.8 c -25.7,30.5 -51.3,60.9 -66.3,96 -15,35 -19.3,74.6 -23.6,114.2 h 132.7 c 2.4,-21.4 4.7,-42.9 12.7,-61.9 8,-19 21.9,-35.6 35.7,-52.2 z"
   id="path4380"
   inkscape:connector-curvature="0"
   style="clip-rule:evenodd;fill-rule:evenodd;fill:#ffffff" />
		<path
   class="st0"
   d="m 2535.3,426.8 c 15.2,-5.8 31.8,-7.9 48.4,-10.1 V 284.1 c -33.5,3.9 -67,7.8 -97.5,19.7 -30.5,11.8 -57.9,31.5 -85.3,51.1 l 91.4,96.3 c 13.9,-9.3 27.8,-18.6 43,-24.4 z"
   id="path4382"
   inkscape:connector-curvature="0"
   style="clip-rule:evenodd;fill-rule:evenodd;fill:#ffffff" />
		<path
   class="st0"
   d="m 2644.3,425.3 c 14.1,4.9 27.2,12.8 40.2,20.8 l 96.2,-93.2 c -27.2,-19.2 -54.4,-38.3 -84.6,-49.8 -30.1,-11.5 -63.2,-15.3 -96.2,-19 v 132.6 c 15.2,1.9 30.3,3.7 44.4,8.6 z"
   id="path4384"
   inkscape:connector-curvature="0"
   style="clip-rule:evenodd;fill-rule:evenodd;fill:#ffffff" />
		<path
   class="st0"
   d="m 2737.5,510.2 c 9.1,20 11.7,42.9 14.4,65.8 h 133 c -4.5,-40.1 -8.8,-80.2 -24.2,-115.6 -15.3,-35.4 -41.6,-66 -67.9,-96.7 l -95.5,92.4 c 15.6,17.1 31.1,34.1 40.2,54.1 z"
   id="path4386"
   inkscape:connector-curvature="0"
   style="clip-rule:evenodd;fill-rule:evenodd;fill:#ffffff" />
		<path
   class="st0"
   d="m 2735.7,575.9 c -0.2,-18.8 -3.9,-37.5 -11.1,-54.9 -7.2,-17.3 -18,-33.2 -31.3,-46.4 -43.4,-41.7 -100.3,-53 -156.4,-31 -17.3,7.2 -33.3,17.8 -46.6,31 -28.3,28.1 -42.2,65.7 -42.4,101.3 z"
   id="path4388"
   inkscape:connector-curvature="0"
   style="clip-rule:evenodd;fill-rule:evenodd;fill:#ffffff" />
		<rect
   x="257.60001"
   y="648.40002"
   class="st0"
   width="4668.8999"
   height="28.799999"
   id="rect4390"
   style="clip-rule:evenodd;fill-rule:evenodd;fill:#ffffff" />
		<rect
   x="257.60001"
   y="701.20001"
   class="st0"
   width="4668.8999"
   height="28.799999"
   id="rect4392"
   style="clip-rule:evenodd;fill-rule:evenodd;fill:#ffffff" />
	</g>
	<g
   id="g4422"
   style="fill:#ffffff">
		<path
   d="m 1437.1,940.4 -40.4,19.6 c -1.7,-8.5 -2.9,-16 -3.8,-22.3 -0.8,-6.4 -1.2,-11.9 -1.2,-16.4 0,-29.5 10.7,-53.7 32,-72.6 21.4,-18.9 51.8,-31.2 91.3,-36.8 l 40.6,-17.6 -3.7,13.5 c 33.1,0.5 56.7,4.7 70.6,12.8 13.9,8.1 20.9,21.2 20.9,39.4 0,17.6 -7,33.3 -21,47.1 -14,13.8 -34.4,25 -61.3,33.9 l 26.2,91.4 c 11.4,40 23.4,69.5 36.1,88.6 12.7,19.1 26.6,28.6 41.8,28.6 8.1,0 15.8,-2.4 23.1,-7.3 7.4,-4.9 15.1,-12.7 23.1,-23.5 l 1.8,40.6 c -8.1,2.6 -15.1,4.4 -21.1,5.5 -6,1.1 -11.7,1.6 -17.2,1.6 -35.7,0 -64.1,-13.6 -85.3,-40.8 -21.1,-27.2 -38.5,-73 -52,-137.5 l -8.9,-40.8 -12.5,1.1 c -8.7,31 -18.7,55.5 -30,73.4 -11.3,17.9 -25.6,32.5 -42.7,43.5 9.4,0.3 19,0.7 28.8,1.1 9.8,0.5 19.7,1.1 29.7,1.8 -9.3,7.6 -18.5,13.1 -27.6,16.4 -9.1,3.3 -20.1,5 -33.1,5 -2.3,0 -5.7,-0.1 -10.3,-0.2 -4.6,-0.2 -8.1,-0.2 -10.7,-0.2 h -61.1 l 16.2,-22.8 h 4.3 c 27.2,0 46.8,-5.6 58.9,-16.9 12.1,-11.2 22.8,-35 32,-71.4 l 38.8,-150.9 c -25.4,3.5 -44.6,11.7 -57.8,24.6 -13.1,12.9 -19.7,30.1 -19.7,51.5 0,4.6 0.3,9.6 1,15.2 1.1,5.6 2.3,12.8 4.2,21.8 z m 84.3,-6.6 c 24.5,-2.7 43.9,-10.7 58.2,-23.8 14.4,-13.1 21.5,-29.3 21.5,-48.4 0,-11.5 -3.8,-20.5 -11.3,-26.9 -7.5,-6.4 -18,-9.6 -31.6,-9.6 -2,0 -5.2,0.2 -9.6,0.7 -0.8,0.2 -1.3,0.2 -1.6,0.2 z"
   id="path4396"
   inkscape:connector-curvature="0"
   style="fill:#ffffff" />
		<path
   d="m 1653.3,1045 c 0,-17.7 3.3,-35.3 9.8,-53 6.6,-17.7 15.1,-32.1 25.6,-43.3 9.6,-10.1 21.4,-18.6 35.3,-25.5 13.9,-6.9 26.1,-10.3 36.5,-10.3 11.8,0 20.9,3.9 27.1,11.6 6.2,7.7 9.4,18.9 9.4,33.4 0,17.2 -2.8,34.2 -8.5,51.3 -5.7,17 -13.4,31.6 -23.1,43.9 -9.2,11.4 -21.4,21.2 -36.4,29.1 -15,8 -27.9,12 -38.7,12 -12,0 -21.1,-4.3 -27.5,-12.8 -6.4,-8.6 -9.5,-20.7 -9.5,-36.4 z m 88.1,-110.7 c -14.8,0 -28.1,10.3 -39.9,30.8 -11.8,20.5 -17.6,44.4 -17.6,71.5 0,11.3 2.2,20.1 6.7,26.4 4.5,6.3 10.8,9.5 18.8,9.5 7.1,0 14.1,-2.3 20.8,-7 6.7,-4.7 12.3,-11.1 16.9,-19.3 6,-11 10.8,-23.6 14.4,-37.5 3.6,-14 5.5,-26.7 5.5,-38.3 0,-11.3 -2.2,-20.1 -6.7,-26.5 -4.6,-6.4 -10.9,-9.6 -18.9,-9.6 z"
   id="path4398"
   inkscape:connector-curvature="0"
   style="fill:#ffffff" />
		<path
   d="m 1787.4,1056.5 c 4,-3.4 8.5,-6.6 13.5,-9.7 5,-3.1 10.9,-6.2 17.6,-9.4 0.9,11.8 3.9,21 9,27.6 5.1,6.6 11.8,9.8 20.1,9.8 8.6,0 16.2,-3.3 23,-9.9 6.8,-6.6 10.1,-14.1 10.1,-22.4 0,-5.1 -1.1,-9.7 -3.3,-13.8 -2.2,-4.2 -5.5,-7.7 -9.7,-10.5 l -12.5,-8 c -6.6,-4.3 -11.7,-9.3 -15.3,-15 -3.6,-5.7 -5.4,-11.7 -5.4,-17.9 0,-7 2.1,-14.5 6.3,-22.3 4.2,-7.9 10.2,-15.4 18,-22.5 7.4,-6.9 14.9,-12.1 22.6,-15.7 7.7,-3.6 15,-5.4 22,-5.4 5.7,0 11.1,1.2 16.3,3.5 5.1,2.3 10.2,5.9 15.3,10.7 -2.1,2.3 -5.6,6.4 -10.6,12.1 -5,5.7 -9.1,10.3 -12.2,13.8 -5.5,-6 -10.6,-10.4 -15.3,-13.3 -4.7,-2.9 -9.5,-4.3 -14.1,-4.3 -6.4,0 -11.8,2.4 -16.4,7.3 -4.6,4.9 -6.8,10.8 -6.8,17.8 0,4.3 1.1,8.3 3.3,12.1 2.2,3.8 5.5,7.1 9.8,9.9 l 15.6,9.9 c 7,4.6 12.3,9.5 15.9,14.7 3.6,5.3 5.4,10.9 5.4,16.9 0,16.5 -8.9,32.6 -26.6,48.2 -17.7,15.6 -36,23.4 -54.9,23.4 -10.5,0 -19.2,-3.1 -26,-9.5 -6.8,-6.2 -11.7,-15.6 -14.7,-28.1 z"
   id="path4400"
   inkscape:connector-curvature="0"
   style="fill:#ffffff" />
		<path
   d="m 2061.3,1045 v 11.9 c -18.6,11.8 -36,21 -52.2,27.5 -16.3,6.5 -29.8,9.7 -40.8,9.7 -12,0 -21.1,-3.6 -27.6,-10.8 -6.4,-7.2 -9.7,-17.4 -9.7,-30.7 0,-16 2.8,-32.8 8.4,-50.5 5.6,-17.7 12.5,-32 20.9,-43.1 9.9,-12.9 22,-23.6 36.5,-32.2 14.4,-8.6 27.2,-12.9 38.2,-12.9 7.4,0 13.5,2.3 18.3,7 4.8,4.7 7.2,10.6 7.2,17.7 0,21.8 -30.7,50.6 -92,86.2 l -6.2,3.7 c -0.3,2.1 -0.5,4.1 -0.6,6.1 -0.1,2 -0.2,4.6 -0.2,7.7 0,9.6 2.1,16.6 6.2,21.1 4.2,4.4 10.7,6.6 19.7,6.6 7.3,0 16.9,-2 28.8,-6.1 11.8,-4 26.9,-10.3 45.1,-18.9 z m -95.6,-35.3 c 5.6,-2.1 12.3,-5.9 20.3,-11.3 1.2,-0.8 2,-1.4 2.5,-1.8 l 11.7,-8 c 8.1,-5.6 14.3,-11.7 18.8,-18.4 4.5,-6.7 6.7,-13.4 6.7,-20 0,-5.1 -1.2,-8.9 -3.5,-11.6 -2.3,-2.7 -5.7,-4 -10.1,-4 -7.9,0 -16.3,7 -25.2,21.1 -8.9,14.2 -16,32.2 -21.2,54 z"
   id="path4402"
   inkscape:connector-curvature="0"
   style="fill:#ffffff" />
		<path
   d="m 2155,949.1 c -5.8,-1 -10.8,-1.8 -14.7,-2.1 -4,-0.4 -7.7,-0.6 -11.2,-0.6 -10.5,0 -18.6,2.2 -24.3,6.5 -5.7,4.4 -10.8,12 -15.3,22.9 l -8.4,20.9 -9.1,-11.7 c 1.7,-4.3 4,-10.4 7,-18.3 12.3,-33.3 24.1,-49.9 35.3,-49.9 5.6,0 14.1,0.8 25.4,2.4 11.4,1.6 19.9,2.4 25.6,2.4 5.1,0 9.6,-0.6 13.4,-1.8 3.9,-1.2 7.7,-3 11.3,-5.5 0.3,0.3 0.5,0.5 0.6,0.6 1.6,2 2.3,3.5 2.3,4.7 0,2.2 -1.9,5.7 -5.8,10.3 -1,1.3 -1.8,2.3 -2.3,2.9 l -11.9,14.6 c -14.9,18.3 -26.4,35.8 -34.5,52.4 -8.1,16.6 -12.1,30.8 -12.1,42.5 0,6.5 1.6,11.8 4.7,15.9 3.1,4.1 7.1,6.1 12.1,6.1 15.1,0 30.9,-12.6 47.6,-37.8 16.6,-25.2 31.4,-59.5 44.3,-102.7 l 33.1,-11.1 c -7.3,18.5 -14.7,39.6 -22.2,63.6 -1.6,5.1 -2.7,8.6 -3.3,10.5 l -5.7,17.7 c -3.1,9.5 -5.4,17.7 -6.9,24.7 -1.5,7 -2.2,13.1 -2.2,18.4 0,6.4 1.5,11.4 4.5,15.2 3,3.8 7.1,5.7 12.3,5.7 5.3,0 11.7,-2.9 19.1,-8.8 7.4,-5.8 14.9,-13.8 22.4,-24 10.7,-14.3 19.4,-30.7 26.3,-49.3 6.9,-18.6 10.3,-34.8 10.3,-48.5 0,-4 -0.3,-8.8 -1,-14.2 -0.6,-5.5 -1.9,-13 -3.7,-22.6 l 32.7,-10.5 c 1.4,4.8 2.5,9.3 3.2,13.5 0.7,4.2 1.1,8.1 1.1,11.9 0,17.9 -4.5,37.5 -13.4,58.6 -8.9,21.1 -21.2,41.1 -36.9,59.9 -15.2,18.5 -30.3,32.9 -45.3,43.5 -15,10.5 -27.8,15.8 -38.5,15.8 -8.8,0 -15.2,-2.2 -19.2,-6.5 -4,-4.4 -5.9,-11.4 -5.9,-21.2 0,-2.6 0.6,-10.6 2,-24 v -1.2 c -18.6,20 -33.4,33.8 -44.4,41.4 -11,7.6 -21.2,11.4 -30.7,11.4 -7.9,0 -14.2,-2.7 -18.9,-8.2 -4.7,-5.5 -7,-12.9 -7,-22.2 0,-16.9 5,-35.1 14.9,-54.7 9.9,-19.5 24.4,-39.4 43.3,-59.5 z"
   id="path4404"
   inkscape:connector-curvature="0"
   style="fill:#ffffff" />
		<path
   d="m 2477.7,1045 v 11.9 c -18.6,11.8 -36,21 -52.2,27.5 -16.2,6.5 -29.8,9.7 -40.7,9.7 -12,0 -21.2,-3.6 -27.6,-10.8 -6.4,-7.2 -9.6,-17.4 -9.6,-30.7 0,-16 2.8,-32.8 8.4,-50.5 5.6,-17.7 12.5,-32 20.9,-43.1 9.9,-12.9 22,-23.6 36.5,-32.2 14.4,-8.6 27.2,-12.9 38.2,-12.9 7.4,0 13.5,2.3 18.3,7 4.8,4.7 7.2,10.6 7.2,17.7 0,21.8 -30.7,50.6 -92,86.2 l -6.2,3.7 c -0.3,2.1 -0.5,4.1 -0.6,6.1 -0.1,2 -0.2,4.6 -0.2,7.7 0,9.6 2.1,16.6 6.2,21.1 4.2,4.4 10.7,6.6 19.7,6.6 7.3,0 16.9,-2 28.8,-6.1 11.6,-4 26.7,-10.3 44.9,-18.9 z m -95.6,-35.3 c 5.6,-2.1 12.3,-5.9 20.3,-11.3 1.2,-0.8 2,-1.4 2.5,-1.8 l 11.7,-8 c 8.1,-5.6 14.3,-11.7 18.8,-18.4 4.5,-6.7 6.7,-13.4 6.7,-20 0,-5.1 -1.2,-8.9 -3.5,-11.6 -2.3,-2.7 -5.7,-4 -10.1,-4 -7.9,0 -16.3,7 -25.2,21.1 -8.9,14.2 -16,32.2 -21.2,54 z"
   id="path4406"
   inkscape:connector-curvature="0"
   style="fill:#ffffff" />
		<path
   d="m 2585.9,1052.2 c -10.9,7.3 -22.2,14.3 -33.9,21.1 -11.7,6.8 -23.7,13.3 -36.1,19.5 l -9.2,-1.6 c -2.9,-4.3 -5,-8.5 -6.5,-12.8 -1.5,-4.2 -2.2,-8.5 -2.2,-12.8 0,-7.7 4.1,-25.8 12.3,-54.4 l 1,-3.5 33.1,-117.7 c 0.3,-0.9 0.6,-2.1 1,-3.7 5.7,-21.1 13,-36.2 21.8,-45.4 3.8,-4.2 9,-8.9 15.6,-14.3 6.6,-5.4 13.8,-10.8 21.4,-16.1 4.2,-2.9 7.9,-4.8 11.2,-5.8 3.3,-1 8.1,-1.6 14.3,-1.6 2.1,0 5.5,0.1 10.3,0.3 4.8,0.2 10.8,0.5 17.9,0.9 l -19.3,24.6 c -5.2,-1 -9.4,-1.8 -12.6,-2.3 -3.2,-0.5 -5.8,-0.8 -7.9,-0.8 -17,0 -30.7,19 -41.1,56.9 -2.3,8.5 -4.2,15.1 -5.7,19.9 l -33.5,118.9 c -1.2,4 -2.1,8.5 -2.8,13.5 -0.7,4.9 -1.1,9 -1.1,12.1 0,4 0.9,7.2 2.8,9.6 1.9,2.3 4.5,3.5 7.9,3.5 1.2,0 6.8,-2.6 17,-7.8 l 2.7,-1.4 23.4,-12.3 z"
   id="path4408"
   inkscape:connector-curvature="0"
   style="fill:#ffffff" />
		<path
   d="m 2679.2,1052.2 c -10.9,7.3 -22.2,14.3 -33.9,21.1 -11.7,6.8 -23.7,13.3 -36.1,19.5 l -9.2,-1.6 c -2.9,-4.3 -5,-8.5 -6.5,-12.8 -1.5,-4.2 -2.2,-8.5 -2.2,-12.8 0,-7.7 4.1,-25.8 12.3,-54.4 l 1,-3.5 33.1,-117.7 c 0.3,-0.9 0.6,-2.1 1,-3.7 5.7,-21.1 13,-36.2 21.8,-45.4 3.8,-4.2 9,-8.9 15.6,-14.3 6.6,-5.4 13.8,-10.8 21.4,-16.1 4.2,-2.9 7.9,-4.8 11.2,-5.8 3.3,-1 8.1,-1.6 14.3,-1.6 2.1,0 5.5,0.1 10.3,0.3 4.8,0.2 10.8,0.5 17.9,0.9 l -19.3,24.6 c -5.2,-1 -9.4,-1.8 -12.6,-2.3 -3.2,-0.5 -5.8,-0.8 -7.9,-0.8 -17,0 -30.7,19 -41.1,56.9 -2.3,8.5 -4.2,15.1 -5.6,19.9 l -33.5,118.9 c -1.2,4 -2.1,8.5 -2.8,13.5 -0.7,4.9 -1.1,9 -1.1,12.1 0,4 0.9,7.2 2.8,9.6 1.9,2.3 4.5,3.5 7.9,3.5 1.2,0 6.8,-2.6 17,-7.8 l 2.7,-1.4 23.4,-12.3 z"
   id="path4410"
   inkscape:connector-curvature="0"
   style="fill:#ffffff" />
		<path
   d="m 3010.6,948.8 c -21.4,1.1 -38.1,1.9 -49.9,2.6 -11.9,0.7 -19,1.2 -21.4,1.5 l -28.5,4.1 c -4.4,16.6 -10.6,31.9 -18.6,46.1 -8,14.1 -18.1,27.7 -30.4,40.8 -19.6,20.5 -33.9,33.4 -42.9,38.8 -9,5.3 -18.5,8 -28.5,8 -3.2,0 -8.7,-0.1 -16.4,-0.3 -7.7,-0.2 -17.5,-0.6 -29.4,-1 l 21,-33.5 c 4.9,0.2 9.4,0.3 13.7,0.3 4.3,0.1 8.3,0.1 12.1,0.1 24.9,0 42.9,-6.4 53.8,-19.3 10.9,-12.8 20.8,-39.8 29.6,-80.8 -0.8,-0.3 -2.7,-1.1 -5.7,-2.4 -3,-1.3 -5.2,-2.4 -6.6,-3.3 l 18.9,-18.5 24.2,-100.8 c -1.5,-0.3 -3,-0.5 -4.6,-0.6 -1.5,-0.1 -3.9,-0.1 -7.1,-0.1 -21.3,0 -37.2,4.3 -47.9,13 -10.6,8.7 -16,21.7 -16,39 0,4 0.4,9 1.3,15.3 0.8,6.2 2.4,15 4.7,26.2 l -39.7,12.5 c -0.9,-6.2 -1.6,-11.8 -2,-16.8 -0.5,-4.9 -0.7,-9.2 -0.7,-12.7 0,-13.1 2.9,-25.1 8.7,-36.2 5.8,-11.1 14.9,-22 27.4,-32.8 19.9,-17.5 51.8,-26.8 95.5,-27.8 1.5,-0.2 2.7,-0.2 3.4,-0.2 l 28,-0.9 v 7.1 l -13.7,16 -23.7,98.7 c 6.2,0.6 12.6,1 19.1,1.3 6.5,0.2 15,0.3 25.5,0.3 l 22.6,-0.5 c 7.1,0 12.7,0 16.8,-0.1 4,-0.1 7.9,-0.3 11.7,-0.6 l 10.7,-41.3 c 9.1,-35.7 20.4,-62.2 33.9,-79.5 13.5,-17.2 32.6,-33.8 57.6,-49.6 3.8,-1.2 7.6,-2.1 11.4,-2.7 3.8,-0.6 7.8,-0.9 12.1,-0.9 2.6,0 4.6,0 6,0.1 1.4,0.1 2.6,0.2 3.5,0.3 l -16.2,33.1 -20.1,-0.9 h -1.4 c -10.8,0 -19.4,5.5 -25.8,16.4 -6.4,10.9 -15.4,40.2 -27.1,87.8 l -34.9,143.4 c -1.2,4.6 -2.2,8.9 -2.8,13 -0.7,4.1 -1,7.7 -1,10.7 0,2.3 1.8,3.9 5.4,4.8 3.6,0.9 9.8,1.4 18.6,1.4 h 8.9 25.5 l -7.3,13 c -9.1,2.4 -18.6,4.6 -28.5,6.5 -9.9,1.9 -21.9,3.8 -36,5.6 l -18.2,3 h -2.3 c -3.5,0 -6.1,-0.8 -8,-2.3 -1.8,-1.5 -2.7,-3.6 -2.7,-6.2 0,-2.1 0.5,-5.9 1.6,-11.4 1.1,-5.5 2.5,-11.6 4.3,-18.5 z"
   id="path4412"
   inkscape:connector-curvature="0"
   style="fill:#ffffff" />
		<path
   d="m 3083.2,1037.5 c 0,-20.7 3.8,-41.3 11.5,-62 7.7,-20.7 17.7,-37.5 30,-50.6 11.2,-11.9 25,-21.8 41.3,-29.9 16.3,-8.1 30.5,-12.1 42.6,-12.1 13.8,0 24.4,4.5 31.7,13.6 7.3,9 10.9,22.1 10.9,39.1 0,20.1 -3.3,40 -9.9,60 -6.6,19.9 -15.6,37 -27,51.3 -10.8,13.4 -25,24.7 -42.5,34.1 -17.6,9.3 -32.6,14 -45.3,14 -14,0 -24.7,-5 -32.1,-14.9 -7.4,-10 -11.2,-24.2 -11.2,-42.6 z M 3186.3,908 c -17.3,0 -32.9,12 -46.6,36 -13.8,24 -20.6,51.9 -20.6,83.7 0,13.2 2.6,23.5 7.9,30.9 5.2,7.4 12.6,11.1 22,11.1 8.4,0 16.5,-2.7 24.3,-8.2 7.8,-5.5 14.4,-13 19.7,-22.6 7,-12.9 12.6,-27.5 16.9,-43.9 4.3,-16.3 6.4,-31.3 6.4,-44.8 0,-13.2 -2.6,-23.6 -7.9,-31 -5.4,-7.5 -12.7,-11.2 -22.1,-11.2 z"
   id="path4414"
   inkscape:connector-curvature="0"
   style="fill:#ffffff" />
		<path
   d="m 3237.7,1096.3 43.1,-147.5 c 0.6,-2.4 1.1,-5 1.6,-7.7 0.5,-2.7 0.7,-5.2 0.7,-7.3 0,-2.9 -0.6,-5.1 -1.8,-6.6 -1.2,-1.5 -3,-2.3 -5.2,-2.3 -1.8,0 -5.8,1.1 -12.1,3.4 -0.9,0.3 -1.7,0.6 -2.5,0.9 l -21.7,6.8 0.9,-13 23.7,-12.5 9.6,-5.2 c 27.1,-14.6 42.7,-21.9 47,-21.9 2.3,0 4.3,0.7 6.2,2.1 1.8,1.4 2.7,3 2.7,5 0,0.6 -0.1,1.5 -0.3,2.6 -0.2,1.1 -0.6,2.4 -1,3.8 l -10.7,40.6 24.2,-13.4 c 30.2,-16.7 50.2,-27.4 59.7,-31.9 9.6,-4.6 16,-6.8 19.1,-6.8 2.9,0 5.1,0.7 6.6,2.2 1.5,1.4 2.3,3.5 2.3,6.3 0,2.3 -0.1,4.4 -0.3,6.5 -0.2,2.1 -0.6,3.8 -1,5.1 l -9.3,30.8 32.6,-18.7 c 22,-12.5 38.1,-21.1 48.2,-25.9 10.1,-4.8 17.1,-7.2 20.9,-7.2 3.3,0 5.7,0.6 7,1.8 1.3,1.2 1.9,3.6 1.9,7.1 0,2.7 -0.1,5.4 -0.4,8 -0.3,2.6 -0.8,4.9 -1.4,7.1 l -28.5,99.9 c -2.3,8.1 -4.1,15.7 -5.5,22.9 -1.4,7.2 -2,12.2 -2,14.9 0,1.8 0.9,3.4 2.8,4.8 1.9,1.4 4.1,2.1 6.5,2.1 4.1,0 13.4,-3.4 28,-10.3 l 3.9,-1.8 23.7,-11.2 v 14.4 L 3514,1070 c -13.7,8.2 -23.9,14.1 -30.7,17.6 -6.8,3.5 -12.7,6.2 -17.9,8.2 l -9.4,-2.5 c -2.1,-4.6 -3.7,-8.6 -4.7,-12.1 -1,-3.5 -1.5,-6.9 -1.5,-10.3 0,-3.9 1.4,-11.1 4.1,-21.4 l 0.2,-0.5 25.1,-90.5 0.5,-1.4 c 2.3,-7.6 3.4,-11.9 3.4,-12.8 v -11.2 c 0,-3 -0.5,-5 -1.4,-5.8 -0.9,-0.8 -2.7,-1.3 -5.2,-1.3 -2.3,0 -8.4,2.5 -18.5,7.4 -10,4.9 -21.5,11.2 -34.4,18.8 l -10.3,6.2 -36.2,127 -39.2,11.2 41.5,-147 c 0,-0.3 0.1,-0.8 0.2,-1.4 1.1,-4.9 1.6,-9 1.6,-12.3 0,-2.4 -0.5,-4.1 -1.5,-5 -1,-0.9 -2.7,-1.4 -5.1,-1.4 -2.3,0 -9.2,2.6 -20.6,7.7 -11.5,5.2 -22.3,11.1 -32.5,17.8 l -9.4,6.2 -36,124.2 z"
   id="path4416"
   inkscape:connector-curvature="0"
   style="fill:#ffffff" />
		<path
   d="m 3681.3,1037.5 v 13.9 c -21.7,13.8 -42.1,24.5 -61.1,32.1 -19,7.6 -34.9,11.4 -47.6,11.4 -14,0 -24.7,-4.2 -32.3,-12.7 -7.5,-8.4 -11.3,-20.4 -11.3,-35.9 0,-18.7 3.3,-38.4 9.8,-59 6.5,-20.7 14.7,-37.5 24.4,-50.4 11.5,-15 25.8,-27.6 42.6,-37.6 16.9,-10 31.8,-15 44.7,-15 8.7,0 15.8,2.7 21.4,8.2 5.6,5.5 8.4,12.4 8.4,20.7 0,25.5 -35.9,59.1 -107.6,100.8 l -7.3,4.3 c -0.3,2.4 -0.5,4.8 -0.7,7.2 -0.1,2.4 -0.2,5.4 -0.2,9 0,11.2 2.4,19.5 7.3,24.6 4.9,5.2 12.5,7.8 23,7.8 8.5,0 19.7,-2.4 33.6,-7.2 14,-4.8 31.6,-12.2 52.9,-22.2 z m -111.8,-41.3 c 6.5,-2.4 14.4,-6.8 23.7,-13.2 1.4,-0.9 2.4,-1.6 3,-2.1 l 13.7,-9.4 c 9.4,-6.5 16.8,-13.7 22,-21.5 5.2,-7.8 7.9,-15.6 7.9,-23.4 0,-5.9 -1.4,-10.4 -4.1,-13.6 -2.7,-3.1 -6.7,-4.7 -11.8,-4.7 -9.3,0 -19.1,8.2 -29.5,24.7 -10.5,16.7 -18.8,37.7 -24.9,63.2 z"
   id="path4418"
   inkscape:connector-curvature="0"
   style="fill:#ffffff" />
		<path
   d="m 3651.8,1050.9 c 4.7,-4 10,-7.8 15.8,-11.4 5.9,-3.6 12.7,-7.3 20.6,-10.9 1.1,13.8 4.6,24.6 10.5,32.3 5.9,7.7 13.8,11.5 23.5,11.5 10,0 19,-3.9 26.9,-11.6 7.9,-7.8 11.8,-16.5 11.8,-26.2 0,-5.9 -1.3,-11.3 -3.9,-16.2 -2.6,-4.9 -6.4,-9 -11.4,-12.3 l -14.6,-9.3 c -7.7,-5 -13.7,-10.9 -17.9,-17.6 -4.2,-6.7 -6.3,-13.7 -6.3,-21 0,-8.2 2.5,-16.9 7.4,-26.1 4.9,-9.2 12,-18 21.1,-26.3 8.7,-8.1 17.5,-14.2 26.4,-18.4 9,-4.2 17.5,-6.3 25.8,-6.3 6.7,0 13,1.4 19,4.1 6,2.7 12,6.9 17.9,12.5 -2.4,2.7 -6.6,7.5 -12.4,14.1 -5.9,6.7 -10.6,12.1 -14.3,16.2 -6.4,-7 -12.3,-12.2 -17.9,-15.5 -5.6,-3.3 -11.1,-5 -16.5,-5 -7.4,0 -13.8,2.8 -19.1,8.5 -5.3,5.7 -8,12.7 -8,20.9 0,5 1.3,9.7 3.9,14.1 2.6,4.4 6.4,8.3 11.4,11.6 l 18.2,11.6 c 8.2,5.3 14.4,11.1 18.6,17.2 4.2,6.2 6.3,12.7 6.3,19.7 0,19.3 -10.4,38.1 -31.1,56.3 -20.7,18.2 -42.1,27.4 -64.2,27.4 -12.3,0 -22.5,-3.7 -30.4,-11.1 -7.9,-7.2 -13.6,-18.2 -17.1,-32.8 z"
   id="path4420"
   inkscape:connector-curvature="0"
   style="fill:#ffffff" />
	</g>
</g>
</svg>