<?xml version="1.0" encoding="UTF-8" standalone="no"?>
<!-- Generator: Adobe Illustrator 19.2.0, SVG Export Plug-In . SVG Version: 6.00 Build 0)  -->

<svg
   xmlns:dc="http://purl.org/dc/elements/1.1/"
   xmlns:cc="http://creativecommons.org/ns#"
   xmlns:rdf="http://www.w3.org/1999/02/22-rdf-syntax-ns#"
   xmlns:svg="http://www.w3.org/2000/svg"
   xmlns="http://www.w3.org/2000/svg"
   xmlns:sodipodi="http://sodipodi.sourceforge.net/DTD/sodipodi-0.dtd"
   xmlns:inkscape="http://www.inkscape.org/namespaces/inkscape"
   version="1.1"
   id="Layer_1"
   x="0px"
   y="0px"
   viewBox="0 0 5184 1728"
   style="enable-background:new 0 0 5184 1728;"
   xml:space="preserve"
   sodipodi:docname="rosewell-logo-black.svg"
   inkscape:version="0.92.4 (f8dce91, 2019-08-02)"><metadata
   id="metadata4431"><rdf:RDF><cc:Work
       rdf:about=""><dc:format>image/svg+xml</dc:format><dc:type
         rdf:resource="http://purl.org/dc/dcmitype/StillImage" /><dc:title></dc:title></cc:Work></rdf:RDF></metadata><defs
   id="defs4429" /><sodipodi:namedview
   pagecolor="#ffffff"
   bordercolor="#666666"
   borderopacity="1"
   objecttolerance="10"
   gridtolerance="10"
   guidetolerance="10"
   inkscape:pageopacity="0"
   inkscape:pageshadow="2"
   inkscape:window-width="2518"
   inkscape:window-height="1379"
   id="namedview4427"
   showgrid="false"
   inkscape:zoom="0.45524691"
   inkscape:cx="2592"
   inkscape:cy="864"
   inkscape:window-x="19"
   inkscape:window-y="19"
   inkscape:window-maximized="0"
   inkscape:current-layer="Layer_1" />
<style
   type="text/css"
   id="style4092">
	.st0{fill-rule:evenodd;clip-rule:evenodd;}
</style>

<g
   id="g4424">
	<g
   id="g4394">
		<path
   class="st0"
   d="M3046,608.4c3.6-58.2-3.7-120.2-23-176.9c-17.4-51.8-44.3-100.3-78.9-142.6c-34.6-42.3-76.8-78.2-124.1-105.6    c-94.1-54.8-208.7-74.2-316.3-52.6c-53.6,10.6-105.2,31-151.6,59.8c-46.4,28.8-87.5,66.1-120.9,109.4    c-69.1,89.3-100.4,201.6-92.6,308.4H3046z M2170,457.4c12.6-44.4,32.6-87.7,59.1-126.8c26.4-39,59.3-73.7,96.8-102.3    c119.1-89,261.5-112.8,402.3-68.4c44.8,14.7,87.3,36.6,125.2,64.6c37.9,28.1,71.2,62.4,98.2,101c55.8,79.6,82.2,175,78.9,266.7    h-876.6C2151.9,547.1,2157.3,501.8,2170,457.4z"
   id="path4370" />
		<path
   class="st0"
   d="M2746.8,183.8c-45.7-18-96.3-23.6-146.8-29.3v113.4c35.2,4,70.5,8,102.6,20.3c32.1,12.3,61,32.8,89.9,53.4    l81.7-79.1C2833.3,232.2,2792.5,201.8,2746.8,183.8z"
   id="path4372" />
		<path
   class="st0"
   d="M2804.5,352.4c27.6,32.3,55.1,64.6,71.2,101.9c16.1,37.2,20.7,79.5,25.3,121.7h113.3    c-6.1-56.9-12.2-113.8-33.6-164.2c-21.4-50.4-58.1-94.3-94.8-138.2L2804.5,352.4z"
   id="path4374" />
		<path
   class="st0"
   d="M2480.2,288.7c32.4-12.5,67.9-16.7,103.5-20.8V154.5c-50.1,5.6-100.2,11.2-145.5,28.9    c-45.4,17.7-86,47.6-126.6,77.4l78.1,82.3C2418.8,322.2,2447.9,301.3,2480.2,288.7z"
   id="path4376" />
		<path
   class="st0"
   d="M2299.8,271.8c-37.2,44.1-74.5,88.1-96.2,138.8c-21.7,50.7-27.9,108-34.1,165.4h113.3    c4.5-41.8,9.1-83.6,24.9-120.6c15.8-37,42.9-69.2,70-101.4L2299.8,271.8z"
   id="path4378" />
		<path
   class="st0"
   d="M2389,365.8c-25.7,30.5-51.3,60.9-66.3,96c-15,35-19.3,74.6-23.6,114.2h132.7c2.4-21.4,4.7-42.9,12.7-61.9    c8-19,21.9-35.6,35.7-52.2L2389,365.8z"
   id="path4380" />
		<path
   class="st0"
   d="M2535.3,426.8c15.2-5.8,31.8-7.9,48.4-10.1V284.1c-33.5,3.9-67,7.8-97.5,19.7c-30.5,11.8-57.9,31.5-85.3,51.1    l91.4,96.3C2506.2,441.9,2520.1,432.6,2535.3,426.8z"
   id="path4382" />
		<path
   class="st0"
   d="M2644.3,425.3c14.1,4.9,27.2,12.8,40.2,20.8l96.2-93.2c-27.2-19.2-54.4-38.3-84.6-49.8    c-30.1-11.5-63.2-15.3-96.2-19v132.6C2615.1,418.6,2630.2,420.4,2644.3,425.3z"
   id="path4384" />
		<path
   class="st0"
   d="M2737.5,510.2c9.1,20,11.7,42.9,14.4,65.8h133c-4.5-40.1-8.8-80.2-24.2-115.6c-15.3-35.4-41.6-66-67.9-96.7    l-95.5,92.4C2712.9,473.2,2728.4,490.2,2737.5,510.2z"
   id="path4386" />
		<path
   class="st0"
   d="M2735.7,575.9c-0.2-18.8-3.9-37.5-11.1-54.9c-7.2-17.3-18-33.2-31.3-46.4c-43.4-41.7-100.3-53-156.4-31    c-17.3,7.2-33.3,17.8-46.6,31c-28.3,28.1-42.2,65.7-42.4,101.3H2735.7z"
   id="path4388" />
		<rect
   x="257.6"
   y="648.4"
   class="st0"
   width="4668.9"
   height="28.8"
   id="rect4390" />
		<rect
   x="257.6"
   y="701.2"
   class="st0"
   width="4668.9"
   height="28.8"
   id="rect4392" />
	</g>
	<g
   id="g4422">
		<path
   d="M1437.1,940.4l-40.4,19.6c-1.7-8.5-2.9-16-3.8-22.3c-0.8-6.4-1.2-11.9-1.2-16.4c0-29.5,10.7-53.7,32-72.6    c21.4-18.9,51.8-31.2,91.3-36.8l40.6-17.6l-3.7,13.5c33.1,0.5,56.7,4.7,70.6,12.8c13.9,8.1,20.9,21.2,20.9,39.4    c0,17.6-7,33.3-21,47.1c-14,13.8-34.4,25-61.3,33.9l26.2,91.4c11.4,40,23.4,69.5,36.1,88.6c12.7,19.1,26.6,28.6,41.8,28.6    c8.1,0,15.8-2.4,23.1-7.3c7.4-4.9,15.1-12.7,23.1-23.5l1.8,40.6c-8.1,2.6-15.1,4.4-21.1,5.5c-6,1.1-11.7,1.6-17.2,1.6    c-35.7,0-64.1-13.6-85.3-40.8c-21.1-27.2-38.5-73-52-137.5l-8.9-40.8l-12.5,1.1c-8.7,31-18.7,55.5-30,73.4    c-11.3,17.9-25.6,32.5-42.7,43.5c9.4,0.3,19,0.7,28.8,1.1c9.8,0.5,19.7,1.1,29.7,1.8c-9.3,7.6-18.5,13.1-27.6,16.4    c-9.1,3.3-20.1,5-33.1,5c-2.3,0-5.7-0.1-10.3-0.2c-4.6-0.2-8.1-0.2-10.7-0.2h-61.1l16.2-22.8h4.3c27.2,0,46.8-5.6,58.9-16.9    c12.1-11.2,22.8-35,32-71.4l38.8-150.9c-25.4,3.5-44.6,11.7-57.8,24.6c-13.1,12.9-19.7,30.1-19.7,51.5c0,4.6,0.3,9.6,1,15.2    C1434,924.2,1435.2,931.4,1437.1,940.4z M1521.4,933.8c24.5-2.7,43.9-10.7,58.2-23.8c14.4-13.1,21.5-29.3,21.5-48.4    c0-11.5-3.8-20.5-11.3-26.9c-7.5-6.4-18-9.6-31.6-9.6c-2,0-5.2,0.2-9.6,0.7c-0.8,0.2-1.3,0.2-1.6,0.2L1521.4,933.8z"
   id="path4396" />
		<path
   d="M1653.3,1045c0-17.7,3.3-35.3,9.8-53c6.6-17.7,15.1-32.1,25.6-43.3c9.6-10.1,21.4-18.6,35.3-25.5    c13.9-6.9,26.1-10.3,36.5-10.3c11.8,0,20.9,3.9,27.1,11.6c6.2,7.7,9.4,18.9,9.4,33.4c0,17.2-2.8,34.2-8.5,51.3    c-5.7,17-13.4,31.6-23.1,43.9c-9.2,11.4-21.4,21.2-36.4,29.1c-15,8-27.9,12-38.7,12c-12,0-21.1-4.3-27.5-12.8    C1656.4,1072.8,1653.3,1060.7,1653.3,1045z M1741.4,934.3c-14.8,0-28.1,10.3-39.9,30.8c-11.8,20.5-17.6,44.4-17.6,71.5    c0,11.3,2.2,20.1,6.7,26.4c4.5,6.3,10.8,9.5,18.8,9.5c7.1,0,14.1-2.3,20.8-7c6.7-4.7,12.3-11.1,16.9-19.3    c6-11,10.8-23.6,14.4-37.5c3.6-14,5.5-26.7,5.5-38.3c0-11.3-2.2-20.1-6.7-26.5C1755.7,937.5,1749.4,934.3,1741.4,934.3z"
   id="path4398" />
		<path
   d="M1787.4,1056.5c4-3.4,8.5-6.6,13.5-9.7c5-3.1,10.9-6.2,17.6-9.4c0.9,11.8,3.9,21,9,27.6c5.1,6.6,11.8,9.8,20.1,9.8    c8.6,0,16.2-3.3,23-9.9c6.8-6.6,10.1-14.1,10.1-22.4c0-5.1-1.1-9.7-3.3-13.8c-2.2-4.2-5.5-7.7-9.7-10.5l-12.5-8    c-6.6-4.3-11.7-9.3-15.3-15c-3.6-5.7-5.4-11.7-5.4-17.9c0-7,2.1-14.5,6.3-22.3c4.2-7.9,10.2-15.4,18-22.5    c7.4-6.9,14.9-12.1,22.6-15.7c7.7-3.6,15-5.4,22-5.4c5.7,0,11.1,1.2,16.3,3.5c5.1,2.3,10.2,5.9,15.3,10.7    c-2.1,2.3-5.6,6.4-10.6,12.1c-5,5.7-9.1,10.3-12.2,13.8c-5.5-6-10.6-10.4-15.3-13.3c-4.7-2.9-9.5-4.3-14.1-4.3    c-6.4,0-11.8,2.4-16.4,7.3s-6.8,10.8-6.8,17.8c0,4.3,1.1,8.3,3.3,12.1c2.2,3.8,5.5,7.1,9.8,9.9l15.6,9.9c7,4.6,12.3,9.5,15.9,14.7    c3.6,5.3,5.4,10.9,5.4,16.9c0,16.5-8.9,32.6-26.6,48.2c-17.7,15.6-36,23.4-54.9,23.4c-10.5,0-19.2-3.1-26-9.5    C1795.3,1078.4,1790.4,1069,1787.4,1056.5z"
   id="path4400" />
		<path
   d="M2061.3,1045v11.9c-18.6,11.8-36,21-52.2,27.5c-16.3,6.5-29.8,9.7-40.8,9.7c-12,0-21.1-3.6-27.6-10.8    c-6.4-7.2-9.7-17.4-9.7-30.7c0-16,2.8-32.8,8.4-50.5c5.6-17.7,12.5-32,20.9-43.1c9.9-12.9,22-23.6,36.5-32.2    c14.4-8.6,27.2-12.9,38.2-12.9c7.4,0,13.5,2.3,18.3,7c4.8,4.7,7.2,10.6,7.2,17.7c0,21.8-30.7,50.6-92,86.2l-6.2,3.7    c-0.3,2.1-0.5,4.1-0.6,6.1c-0.1,2-0.2,4.6-0.2,7.7c0,9.6,2.1,16.6,6.2,21.1c4.2,4.4,10.7,6.6,19.7,6.6c7.3,0,16.9-2,28.8-6.1    C2028,1059.9,2043.1,1053.6,2061.3,1045z M1965.7,1009.7c5.6-2.1,12.3-5.9,20.3-11.3c1.2-0.8,2-1.4,2.5-1.8l11.7-8    c8.1-5.6,14.3-11.7,18.8-18.4c4.5-6.7,6.7-13.4,6.7-20c0-5.1-1.2-8.9-3.5-11.6c-2.3-2.7-5.7-4-10.1-4c-7.9,0-16.3,7-25.2,21.1    C1978,969.9,1970.9,987.9,1965.7,1009.7z"
   id="path4402" />
		<path
   d="M2155,949.1c-5.8-1-10.8-1.8-14.7-2.1c-4-0.4-7.7-0.6-11.2-0.6c-10.5,0-18.6,2.2-24.3,6.5c-5.7,4.4-10.8,12-15.3,22.9    l-8.4,20.9L2072,985c1.7-4.3,4-10.4,7-18.3c12.3-33.3,24.1-49.9,35.3-49.9c5.6,0,14.1,0.8,25.4,2.4c11.4,1.6,19.9,2.4,25.6,2.4    c5.1,0,9.6-0.6,13.4-1.8c3.9-1.2,7.7-3,11.3-5.5c0.3,0.3,0.5,0.5,0.6,0.6c1.6,2,2.3,3.5,2.3,4.7c0,2.2-1.9,5.7-5.8,10.3    c-1,1.3-1.8,2.3-2.3,2.9l-11.9,14.6c-14.9,18.3-26.4,35.8-34.5,52.4c-8.1,16.6-12.1,30.8-12.1,42.5c0,6.5,1.6,11.8,4.7,15.9    c3.1,4.1,7.1,6.1,12.1,6.1c15.1,0,30.9-12.6,47.6-37.8c16.6-25.2,31.4-59.5,44.3-102.7l33.1-11.1c-7.3,18.5-14.7,39.6-22.2,63.6    c-1.6,5.1-2.7,8.6-3.3,10.5l-5.7,17.7c-3.1,9.5-5.4,17.7-6.9,24.7c-1.5,7-2.2,13.1-2.2,18.4c0,6.4,1.5,11.4,4.5,15.2    c3,3.8,7.1,5.7,12.3,5.7c5.3,0,11.7-2.9,19.1-8.8c7.4-5.8,14.9-13.8,22.4-24c10.7-14.3,19.4-30.7,26.3-49.3    c6.9-18.6,10.3-34.8,10.3-48.5c0-4-0.3-8.8-1-14.2c-0.6-5.5-1.9-13-3.7-22.6l32.7-10.5c1.4,4.8,2.5,9.3,3.2,13.5    c0.7,4.2,1.1,8.1,1.1,11.9c0,17.9-4.5,37.5-13.4,58.6s-21.2,41.1-36.9,59.9c-15.2,18.5-30.3,32.9-45.3,43.5    c-15,10.5-27.8,15.8-38.5,15.8c-8.8,0-15.2-2.2-19.2-6.5c-4-4.4-5.9-11.4-5.9-21.2c0-2.6,0.6-10.6,2-24v-1.2    c-18.6,20-33.4,33.8-44.4,41.4c-11,7.6-21.2,11.4-30.7,11.4c-7.9,0-14.2-2.7-18.9-8.2c-4.7-5.5-7-12.9-7-22.2    c0-16.9,5-35.1,14.9-54.7C2121.6,989.1,2136.1,969.2,2155,949.1z"
   id="path4404" />
		<path
   d="M2477.7,1045v11.9c-18.6,11.8-36,21-52.2,27.5c-16.2,6.5-29.8,9.7-40.7,9.7c-12,0-21.2-3.6-27.6-10.8    c-6.4-7.2-9.6-17.4-9.6-30.7c0-16,2.8-32.8,8.4-50.5c5.6-17.7,12.5-32,20.9-43.1c9.9-12.9,22-23.6,36.5-32.2    c14.4-8.6,27.2-12.9,38.2-12.9c7.4,0,13.5,2.3,18.3,7c4.8,4.7,7.2,10.6,7.2,17.7c0,21.8-30.7,50.6-92,86.2l-6.2,3.7    c-0.3,2.1-0.5,4.1-0.6,6.1c-0.1,2-0.2,4.6-0.2,7.7c0,9.6,2.1,16.6,6.2,21.1c4.2,4.4,10.7,6.6,19.7,6.6c7.3,0,16.9-2,28.8-6.1    C2444.4,1059.9,2459.5,1053.6,2477.7,1045z M2382.1,1009.7c5.6-2.1,12.3-5.9,20.3-11.3c1.2-0.8,2-1.4,2.5-1.8l11.7-8    c8.1-5.6,14.3-11.7,18.8-18.4c4.5-6.7,6.7-13.4,6.7-20c0-5.1-1.2-8.9-3.5-11.6c-2.3-2.7-5.7-4-10.1-4c-7.9,0-16.3,7-25.2,21.1    C2394.4,969.9,2387.3,987.9,2382.1,1009.7z"
   id="path4406" />
		<path
   d="M2585.9,1052.2c-10.9,7.3-22.2,14.3-33.9,21.1c-11.7,6.8-23.7,13.3-36.1,19.5l-9.2-1.6c-2.9-4.3-5-8.5-6.5-12.8    c-1.5-4.2-2.2-8.5-2.2-12.8c0-7.7,4.1-25.8,12.3-54.4l1-3.5l33.1-117.7c0.3-0.9,0.6-2.1,1-3.7c5.7-21.1,13-36.2,21.8-45.4    c3.8-4.2,9-8.9,15.6-14.3c6.6-5.4,13.8-10.8,21.4-16.1c4.2-2.9,7.9-4.8,11.2-5.8c3.3-1,8.1-1.6,14.3-1.6c2.1,0,5.5,0.1,10.3,0.3    c4.8,0.2,10.8,0.5,17.9,0.9l-19.3,24.6c-5.2-1-9.4-1.8-12.6-2.3c-3.2-0.5-5.8-0.8-7.9-0.8c-17,0-30.7,19-41.1,56.9    c-2.3,8.5-4.2,15.1-5.7,19.9l-33.5,118.9c-1.2,4-2.1,8.5-2.8,13.5c-0.7,4.9-1.1,9-1.1,12.1c0,4,0.9,7.2,2.8,9.6    c1.9,2.3,4.5,3.5,7.9,3.5c1.2,0,6.8-2.6,17-7.8l2.7-1.4l23.4-12.3L2585.9,1052.2z"
   id="path4408" />
		<path
   d="M2679.2,1052.2c-10.9,7.3-22.2,14.3-33.9,21.1c-11.7,6.8-23.7,13.3-36.1,19.5l-9.2-1.6c-2.9-4.3-5-8.5-6.5-12.8    c-1.5-4.2-2.2-8.5-2.2-12.8c0-7.7,4.1-25.8,12.3-54.4l1-3.5l33.1-117.7c0.3-0.9,0.6-2.1,1-3.7c5.7-21.1,13-36.2,21.8-45.4    c3.8-4.2,9-8.9,15.6-14.3c6.6-5.4,13.8-10.8,21.4-16.1c4.2-2.9,7.9-4.8,11.2-5.8c3.3-1,8.1-1.6,14.3-1.6c2.1,0,5.5,0.1,10.3,0.3    c4.8,0.2,10.8,0.5,17.9,0.9l-19.3,24.6c-5.2-1-9.4-1.8-12.6-2.3c-3.2-0.5-5.8-0.8-7.9-0.8c-17,0-30.7,19-41.1,56.9    c-2.3,8.5-4.2,15.1-5.6,19.9l-33.5,118.9c-1.2,4-2.1,8.5-2.8,13.5c-0.7,4.9-1.1,9-1.1,12.1c0,4,0.9,7.2,2.8,9.6    c1.9,2.3,4.5,3.5,7.9,3.5c1.2,0,6.8-2.6,17-7.8l2.7-1.4l23.4-12.3L2679.2,1052.2z"
   id="path4410" />
		<path
   d="M3010.6,948.8c-21.4,1.1-38.1,1.9-49.9,2.6c-11.9,0.7-19,1.2-21.4,1.5l-28.5,4.1c-4.4,16.6-10.6,31.9-18.6,46.1    c-8,14.1-18.1,27.7-30.4,40.8c-19.6,20.5-33.9,33.4-42.9,38.8c-9,5.3-18.5,8-28.5,8c-3.2,0-8.7-0.1-16.4-0.3    c-7.7-0.2-17.5-0.6-29.4-1l21-33.5c4.9,0.2,9.4,0.3,13.7,0.3c4.3,0.1,8.3,0.1,12.1,0.1c24.9,0,42.9-6.4,53.8-19.3    c10.9-12.8,20.8-39.8,29.6-80.8c-0.8-0.3-2.7-1.1-5.7-2.4c-3-1.3-5.2-2.4-6.6-3.3l18.9-18.5l24.2-100.8c-1.5-0.3-3-0.5-4.6-0.6    c-1.5-0.1-3.9-0.1-7.1-0.1c-21.3,0-37.2,4.3-47.9,13c-10.6,8.7-16,21.7-16,39c0,4,0.4,9,1.3,15.3c0.8,6.2,2.4,15,4.7,26.2    l-39.7,12.5c-0.9-6.2-1.6-11.8-2-16.8c-0.5-4.9-0.7-9.2-0.7-12.7c0-13.1,2.9-25.1,8.7-36.2c5.8-11.1,14.9-22,27.4-32.8    c19.9-17.5,51.8-26.8,95.5-27.8c1.5-0.2,2.7-0.2,3.4-0.2l28-0.9v7.1l-13.7,16l-23.7,98.7c6.2,0.6,12.6,1,19.1,1.3    c6.5,0.2,15,0.3,25.5,0.3l22.6-0.5c7.1,0,12.7,0,16.8-0.1c4-0.1,7.9-0.3,11.7-0.6l10.7-41.3c9.1-35.7,20.4-62.2,33.9-79.5    c13.5-17.2,32.6-33.8,57.6-49.6c3.8-1.2,7.6-2.1,11.4-2.7c3.8-0.6,7.8-0.9,12.1-0.9c2.6,0,4.6,0,6,0.1c1.4,0.1,2.6,0.2,3.5,0.3    l-16.2,33.1l-20.1-0.9h-1.4c-10.8,0-19.4,5.5-25.8,16.4c-6.4,10.9-15.4,40.2-27.1,87.8l-34.9,143.4c-1.2,4.6-2.2,8.9-2.8,13    c-0.7,4.1-1,7.7-1,10.7c0,2.3,1.8,3.9,5.4,4.8s9.8,1.4,18.6,1.4h8.9h25.5l-7.3,13c-9.1,2.4-18.6,4.6-28.5,6.5    c-9.9,1.9-21.9,3.8-36,5.6l-18.2,3h-2.3c-3.5,0-6.1-0.8-8-2.3c-1.8-1.5-2.7-3.6-2.7-6.2c0-2.1,0.5-5.9,1.6-11.4    c1.1-5.5,2.5-11.6,4.3-18.5L3010.6,948.8z"
   id="path4412" />
		<path
   d="M3083.2,1037.5c0-20.7,3.8-41.3,11.5-62c7.7-20.7,17.7-37.5,30-50.6c11.2-11.9,25-21.8,41.3-29.9    c16.3-8.1,30.5-12.1,42.6-12.1c13.8,0,24.4,4.5,31.7,13.6c7.3,9,10.9,22.1,10.9,39.1c0,20.1-3.3,40-9.9,60    c-6.6,19.9-15.6,37-27,51.3c-10.8,13.4-25,24.7-42.5,34.1c-17.6,9.3-32.6,14-45.3,14c-14,0-24.7-5-32.1-14.9    C3087,1070.1,3083.2,1055.9,3083.2,1037.5z M3186.3,908c-17.3,0-32.9,12-46.6,36c-13.8,24-20.6,51.9-20.6,83.7    c0,13.2,2.6,23.5,7.9,30.9c5.2,7.4,12.6,11.1,22,11.1c8.4,0,16.5-2.7,24.3-8.2c7.8-5.5,14.4-13,19.7-22.6    c7-12.9,12.6-27.5,16.9-43.9c4.3-16.3,6.4-31.3,6.4-44.8c0-13.2-2.6-23.6-7.9-31C3203,911.7,3195.7,908,3186.3,908z"
   id="path4414" />
		<path
   d="M3237.7,1096.3l43.1-147.5c0.6-2.4,1.1-5,1.6-7.7c0.5-2.7,0.7-5.2,0.7-7.3c0-2.9-0.6-5.1-1.8-6.6c-1.2-1.5-3-2.3-5.2-2.3    c-1.8,0-5.8,1.1-12.1,3.4c-0.9,0.3-1.7,0.6-2.5,0.9l-21.7,6.8l0.9-13l23.7-12.5l9.6-5.2c27.1-14.6,42.7-21.9,47-21.9    c2.3,0,4.3,0.7,6.2,2.1c1.8,1.4,2.7,3,2.7,5c0,0.6-0.1,1.5-0.3,2.6c-0.2,1.1-0.6,2.4-1,3.8l-10.7,40.6l24.2-13.4    c30.2-16.7,50.2-27.4,59.7-31.9c9.6-4.6,16-6.8,19.1-6.8c2.9,0,5.1,0.7,6.6,2.2c1.5,1.4,2.3,3.5,2.3,6.3c0,2.3-0.1,4.4-0.3,6.5    c-0.2,2.1-0.6,3.8-1,5.1l-9.3,30.8l32.6-18.7c22-12.5,38.1-21.1,48.2-25.9c10.1-4.8,17.1-7.2,20.9-7.2c3.3,0,5.7,0.6,7,1.8    c1.3,1.2,1.9,3.6,1.9,7.1c0,2.7-0.1,5.4-0.4,8c-0.3,2.6-0.8,4.9-1.4,7.1l-28.5,99.9c-2.3,8.1-4.1,15.7-5.5,22.9    c-1.4,7.2-2,12.2-2,14.9c0,1.8,0.9,3.4,2.8,4.8c1.9,1.4,4.1,2.1,6.5,2.1c4.1,0,13.4-3.4,28-10.3l3.9-1.8l23.7-11.2v14.4    l-42.9,25.8c-13.7,8.2-23.9,14.1-30.7,17.6c-6.8,3.5-12.7,6.2-17.9,8.2l-9.4-2.5c-2.1-4.6-3.7-8.6-4.7-12.1    c-1-3.5-1.5-6.9-1.5-10.3c0-3.9,1.4-11.1,4.1-21.4l0.2-0.5l25.1-90.5l0.5-1.4c2.3-7.6,3.4-11.9,3.4-12.8v-11.2c0-3-0.5-5-1.4-5.8    c-0.9-0.8-2.7-1.3-5.2-1.3c-2.3,0-8.4,2.5-18.5,7.4c-10,4.9-21.5,11.2-34.4,18.8l-10.3,6.2l-36.2,127l-39.2,11.2l41.5-147    c0-0.3,0.1-0.8,0.2-1.4c1.1-4.9,1.6-9,1.6-12.3c0-2.4-0.5-4.1-1.5-5c-1-0.9-2.7-1.4-5.1-1.4c-2.3,0-9.2,2.6-20.6,7.7    c-11.5,5.2-22.3,11.1-32.5,17.8l-9.4,6.2l-36,124.2L3237.7,1096.3z"
   id="path4416" />
		<path
   d="M3681.3,1037.5v13.9c-21.7,13.8-42.1,24.5-61.1,32.1c-19,7.6-34.9,11.4-47.6,11.4c-14,0-24.7-4.2-32.3-12.7    c-7.5-8.4-11.3-20.4-11.3-35.9c0-18.7,3.3-38.4,9.8-59c6.5-20.7,14.7-37.5,24.4-50.4c11.5-15,25.8-27.6,42.6-37.6    c16.9-10,31.8-15,44.7-15c8.7,0,15.8,2.7,21.4,8.2c5.6,5.5,8.4,12.4,8.4,20.7c0,25.5-35.9,59.1-107.6,100.8l-7.3,4.3    c-0.3,2.4-0.5,4.8-0.7,7.2c-0.1,2.4-0.2,5.4-0.2,9c0,11.2,2.4,19.5,7.3,24.6c4.9,5.2,12.5,7.8,23,7.8c8.5,0,19.7-2.4,33.6-7.2    C3642.4,1054.9,3660,1047.5,3681.3,1037.5z M3569.5,996.2c6.5-2.4,14.4-6.8,23.7-13.2c1.4-0.9,2.4-1.6,3-2.1l13.7-9.4    c9.4-6.5,16.8-13.7,22-21.5c5.2-7.8,7.9-15.6,7.9-23.4c0-5.9-1.4-10.4-4.1-13.6c-2.7-3.1-6.7-4.7-11.8-4.7    c-9.3,0-19.1,8.2-29.5,24.7C3583.9,949.7,3575.6,970.7,3569.5,996.2z"
   id="path4418" />
		<path
   d="M3651.8,1050.9c4.7-4,10-7.8,15.8-11.4c5.9-3.6,12.7-7.3,20.6-10.9c1.1,13.8,4.6,24.6,10.5,32.3    c5.9,7.7,13.8,11.5,23.5,11.5c10,0,19-3.9,26.9-11.6c7.9-7.8,11.8-16.5,11.8-26.2c0-5.9-1.3-11.3-3.9-16.2    c-2.6-4.9-6.4-9-11.4-12.3l-14.6-9.3c-7.7-5-13.7-10.9-17.9-17.6c-4.2-6.7-6.3-13.7-6.3-21c0-8.2,2.5-16.9,7.4-26.1    c4.9-9.2,12-18,21.1-26.3c8.7-8.1,17.5-14.2,26.4-18.4c9-4.2,17.5-6.3,25.8-6.3c6.7,0,13,1.4,19,4.1c6,2.7,12,6.9,17.9,12.5    c-2.4,2.7-6.6,7.5-12.4,14.1c-5.9,6.7-10.6,12.1-14.3,16.2c-6.4-7-12.3-12.2-17.9-15.5c-5.6-3.3-11.1-5-16.5-5    c-7.4,0-13.8,2.8-19.1,8.5c-5.3,5.7-8,12.7-8,20.9c0,5,1.3,9.7,3.9,14.1c2.6,4.4,6.4,8.3,11.4,11.6l18.2,11.6    c8.2,5.3,14.4,11.1,18.6,17.2c4.2,6.2,6.3,12.7,6.3,19.7c0,19.3-10.4,38.1-31.1,56.3c-20.7,18.2-42.1,27.4-64.2,27.4    c-12.3,0-22.5-3.7-30.4-11.1C3661,1076.5,3655.3,1065.5,3651.8,1050.9z"
   id="path4420" />
	</g>
</g>
</svg>